<?xml version="1.0" encoding="utf-8"?>
<!-- Generator: Adobe Illustrator 14.0.0, SVG Export Plug-In . SVG Version: 6.00 Build 43363)  -->
<!DOCTYPE svg PUBLIC "-//W3C//DTD SVG 1.1//EN" "http://www.w3.org/Graphics/SVG/1.1/DTD/svg11.dtd">
<svg version="1.1" id="Layer_1" xmlns="http://www.w3.org/2000/svg" xmlns:xlink="http://www.w3.org/1999/xlink" x="0px" y="0px"
	 width="256px" height="256px" viewBox="0 0 256 256" enable-background="new 0 0 256 256" xml:space="preserve">
<linearGradient id="SVGID_1_" gradientUnits="userSpaceOnUse" x1="102.2515" y1="274.0303" x2="153.7493" y2="-18.0287">
	<stop  offset="0" style="stop-color:#4CA6CF"/>
	<stop  offset="0.1697" style="stop-color:#3F97BF"/>
	<stop  offset="0.445" style="stop-color:#2E84AB"/>
	<stop  offset="0.7217" style="stop-color:#24799F"/>
	<stop  offset="1" style="stop-color:#21759B"/>
</linearGradient>
<rect fill="url(#SVGID_1_)" width="256" height="256"/>
<g>
	<g>
		<path d="M68.457,23.85l9.401-9.402l32.854,32.803l-9.454,9.401c-2.686-1.79-5.7-2.522-9.04-2.195
			c-3.341,0.328-6.199,1.679-8.575,4.055l-3.874,3.875c-2.343,2.376-3.677,5.226-4.003,8.549c-0.328,3.324,0.404,6.346,2.195,9.066
			l-9.454,9.401L56.059,76.954L41.595,91.366c-1.859,1.86-5.364,4.529-10.512,8.007c-5.149,3.479-8.188,4.753-9.118,3.823
			c-0.93-0.93,0.344-3.985,3.823-9.169c3.478-5.183,6.129-8.687,7.956-10.512l14.412-14.413L35.706,56.601l9.453-9.402
			c2.687,1.791,5.699,2.523,9.04,2.195c3.34-0.327,6.181-1.679,8.523-4.055l3.875-3.874c2.376-2.342,3.728-5.183,4.055-8.523
			C70.979,29.602,70.247,26.571,68.457,23.85z"/>
	</g>
	<g>
		<path fill="#21759B" d="M67.457,22.85l9.401-9.402l32.854,32.803l-9.454,9.401c-2.686-1.79-5.7-2.522-9.04-2.195
			c-3.341,0.328-6.199,1.679-8.575,4.055l-3.874,3.875c-2.343,2.376-3.677,5.226-4.003,8.549c-0.328,3.324,0.404,6.346,2.195,9.066
			l-9.454,9.401L55.059,75.954L40.595,90.366c-1.859,1.86-5.364,4.529-10.512,8.007c-5.149,3.479-8.188,4.753-9.118,3.823
			c-0.93-0.93,0.344-3.985,3.823-9.169c3.478-5.183,6.129-8.687,7.956-10.512l14.412-14.413L34.706,55.601l9.453-9.402
			c2.687,1.791,5.699,2.523,9.04,2.195c3.34-0.327,6.181-1.679,8.523-4.055l3.875-3.874c2.376-2.342,3.728-5.183,4.055-8.523
			C69.979,28.602,69.247,25.571,67.457,22.85z"/>
	</g>
	<g>
		<path fill="#FFFFFF" d="M66.457,21.85l9.401-9.402l32.854,32.803l-9.454,9.401c-2.686-1.79-5.7-2.522-9.04-2.195
			c-3.341,0.328-6.199,1.679-8.575,4.055l-3.874,3.875c-2.343,2.376-3.677,5.226-4.003,8.549c-0.328,3.324,0.404,6.346,2.195,9.066
			l-9.454,9.401L54.059,74.954L39.595,89.366c-1.859,1.86-5.364,4.529-10.512,8.007c-5.149,3.479-8.188,4.753-9.118,3.823
			c-0.93-0.93,0.344-3.985,3.823-9.169c3.478-5.183,6.129-8.687,7.956-10.512l14.412-14.413L33.706,54.601l9.453-9.402
			c2.687,1.791,5.699,2.523,9.04,2.195c3.34-0.327,6.181-1.679,8.523-4.055l3.875-3.874c2.376-2.342,3.728-5.183,4.055-8.523
			C68.979,27.602,68.247,24.571,66.457,21.85z"/>
	</g>
</g>
<g>
	<g>
		<path d="M157.19,109.82c0,5.341-1.636,10.083-4.905,14.224c-3.271,4.142-7.441,6.871-12.512,8.186v35.647
			c0,1.704-0.968,3.522-2.902,5.457c-1.937,1.936-3.871,3.445-5.806,4.528l-2.903,1.626V132.23
			c-5.071-1.315-9.241-4.044-12.512-8.186c-3.271-4.141-4.905-8.883-4.905-14.224c0-6.424,2.264-11.901,6.793-16.43
			c4.528-4.528,10.005-6.792,16.43-6.792s11.901,2.264,16.431,6.792C154.927,97.919,157.19,103.396,157.19,109.82z M124.069,99.922
			c-1.143,1.142-1.713,2.506-1.713,4.093c0,1.587,0.57,2.952,1.713,4.093c1.141,1.142,2.505,1.712,4.093,1.712
			c1.587,0,2.951-0.57,4.093-1.712c1.142-1.141,1.713-2.506,1.713-4.093c0-1.586-0.571-2.951-1.713-4.093
			c-1.142-1.141-2.506-1.713-4.093-1.713C126.574,98.209,125.21,98.781,124.069,99.922z"/>
	</g>
	<g>
		<path fill="#21759B" d="M156.19,108.82c0,5.341-1.636,10.083-4.905,14.224c-3.271,4.142-7.441,6.871-12.512,8.186v35.647
			c0,1.704-0.968,3.522-2.902,5.457c-1.937,1.936-3.871,3.445-5.806,4.528l-2.903,1.626V131.23
			c-5.071-1.315-9.241-4.044-12.512-8.186c-3.271-4.141-4.905-8.883-4.905-14.224c0-6.424,2.264-11.901,6.793-16.43
			c4.528-4.528,10.005-6.792,16.43-6.792s11.901,2.264,16.431,6.792C153.927,96.919,156.19,102.396,156.19,108.82z M123.069,98.922
			c-1.143,1.142-1.713,2.506-1.713,4.093c0,1.587,0.57,2.952,1.713,4.093c1.141,1.142,2.505,1.712,4.093,1.712
			c1.587,0,2.951-0.57,4.093-1.712c1.142-1.141,1.713-2.506,1.713-4.093c0-1.586-0.571-2.951-1.713-4.093
			c-1.142-1.141-2.506-1.713-4.093-1.713C125.574,97.209,124.21,97.781,123.069,98.922z"/>
	</g>
	<g>
		<path fill="#FFFFFF" d="M155.19,107.82c0,5.341-1.636,10.083-4.905,14.224c-3.271,4.142-7.441,6.871-12.512,8.186v35.647
			c0,1.704-0.968,3.522-2.902,5.457c-1.937,1.936-3.871,3.445-5.806,4.528l-2.903,1.626V130.23
			c-5.071-1.315-9.241-4.044-12.512-8.186c-3.271-4.141-4.905-8.883-4.905-14.224c0-6.424,2.264-11.901,6.793-16.43
			c4.528-4.528,10.005-6.792,16.43-6.792s11.901,2.264,16.431,6.792C152.927,95.919,155.19,101.396,155.19,107.82z M122.069,97.922
			c-1.143,1.142-1.713,2.506-1.713,4.093c0,1.587,0.57,2.952,1.713,4.093c1.141,1.142,2.505,1.712,4.093,1.712
			c1.587,0,2.951-0.57,4.093-1.712c1.142-1.141,1.713-2.506,1.713-4.093c0-1.586-0.571-2.951-1.713-4.093
			c-1.142-1.141-2.506-1.713-4.093-1.713C124.574,96.209,123.21,96.781,122.069,97.922z"/>
	</g>
</g>
<g>
	<g>
		<path d="M165.592,193.253v-10.332h72.32v10.332H165.592z M165.592,213.915v-10.331h72.32v10.331H165.592z M165.592,234.578
			v-10.331h72.32v10.331H165.592z"/>
	</g>
	<g>
		<path fill="#21759B" d="M164.592,192.253v-10.332h72.32v10.332H164.592z M164.592,212.915v-10.331h72.32v10.331H164.592z
			 M164.592,233.578v-10.331h72.32v10.331H164.592z"/>
	</g>
	<g>
		<path fill="#FFFFFF" d="M163.592,191.253v-10.332h72.32v10.332H163.592z M163.592,211.915v-10.331h72.32v10.331H163.592z
			 M163.592,232.578v-10.331h72.32v10.331H163.592z"/>
	</g>
</g>
</svg>
